<svg width="381" height="163" viewBox="0 0 381 163" fill="none" xmlns="http://www.w3.org/2000/svg">
<path d="M10.9531 0.890625H11.5156C11.7031 0.890625 11.9375 1.14844 12.2188 1.66406V56.6484C12.7344 57.1641 12.9922 57.6562 12.9922 58.125V58.6875C12.9922 59.1094 12.7344 59.6016 12.2188 60.1641C12.3125 60.1641 12.6875 60.2344 13.3438 60.375C25.0625 60.5625 30.9219 61.1016 30.9219 61.9922C31.625 62.6484 33.1484 67.4062 35.4922 76.2656L47.7266 117.82C48.0547 118.195 48.4766 118.57 48.9922 118.945C50.1172 118.945 51.2891 116.836 52.5078 112.617C63.6172 83.0859 69.7109 67.0078 70.7891 64.3828C72.0078 63.5391 72.8047 63.1172 73.1797 63.1172L85.9766 63.6797L85.7656 62.7656V62.5547C86 61.3359 86.4453 60.7266 87.1016 60.7266C87.1016 58.1016 86.1172 55.7578 84.1484 53.6953C83.9141 54.2109 83.4688 54.4688 82.8125 54.4688H81.6875C80.7031 53.9062 80.2109 53.2266 80.2109 52.4297V52.0078C80.2109 51.0234 80.8906 50.3437 82.25 49.9688H82.6016C83.7734 49.9688 84.5234 50.7891 84.8516 52.4297C85.5078 52.4297 86.2578 53.3438 87.1016 55.1719H87.2422V54.6094C87.2422 51.8906 87.1953 34.1719 87.1016 1.45312L87.8047 0.890625H88.3672L89.0703 1.45312C89.2109 19.8281 89.2812 29.4844 89.2812 30.4219C89.2812 35.0625 89.3516 45.2812 89.4922 61.0781C89.9609 61.2656 90.1953 61.7109 90.1953 62.4141V62.9062L90.0547 63.8906C94.6016 63.9375 96.875 64.2891 96.875 64.9453C97.4844 65.4609 97.7891 66.0938 97.7891 66.8438C95.4453 120.516 94.0859 148.172 93.7109 149.812C92.9141 150.656 92.0469 151.078 91.1094 151.078C81.4062 151.078 76.5547 150.328 76.5547 148.828L76.3438 148.125L78.5938 98.7656C78.4531 95.9531 78.1953 94.5469 77.8203 94.5469H77.2578C75.9922 95.4375 74.0234 99.6797 71.3516 107.273C61.5078 131.836 56.0234 145.336 54.8984 147.773C53.9609 148.758 52.7891 149.25 51.3828 149.25C43.7422 149.25 39.9219 148.688 39.9219 147.562C38.8438 145.922 36.9453 139.945 34.2266 129.633C33.6172 128.18 30.3594 117.352 24.4531 97.1484C23.3281 94.0547 22.5078 92.5078 21.9922 92.5078H21.8516C20.7266 92.5078 19.9766 100.078 19.6016 115.219L17.9844 145.875C17.1875 147 16.2031 147.562 15.0312 147.562C5.51563 147.375 0.757812 146.766 0.757812 145.734C0.523438 144.656 0.40625 143.977 0.40625 143.695C2.75 90.4453 4.10938 63.0938 4.48438 61.6406C4.95312 60.8438 5.82031 60.2813 7.08594 59.9531C7.17969 59.9531 7.22656 60.0234 7.22656 60.1641L8.14062 59.9531H8.35156L9.26562 60.1641C8.79688 59.6484 8.5625 59.0391 8.5625 58.3359C8.79688 57.0703 9.21875 56.4375 9.82812 56.4375C9.82812 53.8594 8.84375 51.5391 6.875 49.4766C6.6875 49.9453 6.26562 50.1797 5.60938 50.1797H4.48438C3.5 49.6641 3.00781 48.9844 3.00781 48.1406V47.7891C3.00781 46.7578 3.6875 46.0781 5.04688 45.75H5.39844C6.52344 45.75 7.25 46.5469 7.57812 48.1406C8.28125 48.1406 9.10156 49.1953 10.0391 51.3047H10.1797V1.66406C10.1797 1.42969 10.4375 1.17188 10.9531 0.890625ZM8.14062 68.8828C8.51562 70.8516 9.64062 71.8359 11.5156 71.8359C12.9219 71.8359 13.8359 70.8516 14.2578 68.8828C14.2578 67.7578 13.6953 66.8203 12.5703 66.0703H12.2188C12.2188 66.9141 11.9844 67.3359 11.5156 67.3359H10.9531C10.6719 67.3359 10.3672 66.9141 10.0391 66.0703C8.77344 66.7734 8.14062 67.7109 8.14062 68.8828ZM85.4141 73.1016C85.7891 75.0703 86.8906 76.0547 88.7188 76.0547C90.125 76.0547 91.0625 75.0703 91.5312 73.1016C91.5312 71.9766 90.9688 71.0625 89.8438 70.3594H89.6328C89.6328 70.8281 89.3281 71.25 88.7188 71.625C88.0156 71.625 87.5234 71.2031 87.2422 70.3594C86.0234 71.0156 85.4141 71.9297 85.4141 73.1016ZM159.312 100.383C159.312 102.211 160.461 103.289 162.758 103.617C164.68 103.242 165.641 102.094 165.641 100.172C165.172 98.3906 164.469 97.5 163.531 97.5V98.4844C163.531 98.6719 163.273 98.9297 162.758 99.2578H162.195C162.008 99.2578 161.75 99 161.422 98.4844V97.5H161.211C159.945 98.2031 159.312 99.1641 159.312 100.383ZM146.375 123.797C145.25 132.469 146.867 139.57 151.227 145.102C153.852 147.539 156.359 148.922 158.75 149.25L161.07 149.531C164.867 150 168.711 148.594 172.602 145.312C175.273 142.641 176.938 138.75 177.594 133.641C179 122.344 176.422 114.281 169.859 109.453C168.359 108.75 166.438 108.117 164.094 107.555C160.812 107.133 157.297 107.93 153.547 109.945C149.562 112.664 147.172 117.281 146.375 123.797ZM109.25 102.703C107.984 103.406 107.352 104.367 107.352 105.586C107.727 107.695 108.898 108.75 110.867 108.75C112.367 108.75 113.328 107.695 113.75 105.586C113.75 104.414 113.164 103.453 111.992 102.703H111.641C111.641 103.359 111.43 103.688 111.008 103.688H110.234C110.141 103.688 109.812 103.359 109.25 102.703ZM128.797 135.68H120.219V158.461C120.219 161.32 119.047 162.75 116.703 162.75H106.367C103.508 162.75 102.078 161.461 102.078 158.883V99.5391C102.078 97.3359 103.438 96.2344 106.156 96.2344H107.703V95.4609C107.703 94.7109 108.172 93.9844 109.109 93.2812C109.109 91.5938 108.523 90.75 107.352 90.75C105.664 90.75 104.82 90.0469 104.82 88.6406V88.2188C104.82 87.1406 105.523 86.4375 106.93 86.1094H107.352C108.758 86.2969 109.461 87 109.461 88.2188V88.6406L109.32 89.625L109.672 89.7656V85.6875L109.461 1.73438C109.461 1.54688 109.742 1.28906 110.305 0.960938H110.867C111.055 0.960938 111.312 1.21875 111.641 1.73438L111.852 85.6875V93.9141C112.227 94.3828 112.414 94.8281 112.414 95.25V96.2344H116.703C119.047 96.2344 120.219 97.5234 120.219 100.102V122.883H128.516C128.516 122.648 128.539 122.414 128.586 122.18L128.797 120.984C129.5 115.172 132.195 109.547 136.883 104.109C142.086 99.3281 145.438 97.0312 146.938 97.2188C151.812 95.1094 156.641 94.0312 161.422 93.9844V91.9453C160.812 91.2891 160.508 90.7031 160.508 90.1875V89.8359C160.508 89.2734 160.812 88.6406 161.422 87.9375V0.960938C161.422 0.773438 161.68 0.515625 162.195 0.1875H162.758C162.945 0.1875 163.203 0.445312 163.531 0.960938V82.3828H163.742C163.742 81.6328 164.562 80.5312 166.203 79.0781C166.578 77.5781 167.352 76.8281 168.523 76.8281H168.734C170 76.8281 170.75 77.6484 170.984 79.2891C170.609 80.6953 169.906 81.3984 168.875 81.3984H168.312C167.844 81.3984 167.328 81.1406 166.766 80.625C164.891 82.7344 163.953 84.9844 163.953 87.375V87.7266C164.703 88.5234 165.078 89.1562 165.078 89.625V90.1875C165.078 91.0781 164.562 91.7344 163.531 92.1562L163.461 94.0547C164.258 94.1016 165.031 94.1719 165.781 94.2656L167.891 94.4062C176.094 95.5312 182.914 99.2109 188.352 105.445C192.148 110.695 194.422 115.875 195.172 120.984C195.828 125.062 195.992 128.367 195.664 130.898C195.523 133.242 195.406 134.789 195.312 135.539C193.906 146.602 187.836 154.711 177.102 159.867C171.523 161.977 167.609 162.891 165.359 162.609C164.234 162.938 161.656 162.984 157.625 162.75C142.812 160.875 133.414 152.906 129.43 138.844C129.195 137.812 128.984 136.758 128.797 135.68ZM233.914 0.117188H234.477C234.664 0.117188 234.922 0.375 235.25 0.890625V73.3828C236.141 72.6797 236.984 71.5781 237.781 70.0781C238.25 69.7031 238.695 69.5156 239.117 69.5156H239.469C240.828 69.7031 241.508 70.3828 241.508 71.5547V72.4688C240.992 73.4531 240.383 73.9453 239.68 73.9453H239.117C238.648 73.9453 238.086 73.7109 237.43 73.2422C235.977 75.1172 235.25 76.6406 235.25 77.8125V80.4141C235.719 80.9297 235.953 81.4219 235.953 81.8906V82.3828C235.953 82.8516 235.719 83.3438 235.25 83.8594V84.4219C238.812 84.4219 243.172 85.9688 248.328 89.0625C252.5 92.25 255.125 95.625 256.203 99.1875V99.8906C256.203 101.391 253.273 102.68 247.414 103.758C245.258 104.508 243.711 104.883 242.773 104.883C241.367 104.883 240.148 103.969 239.117 102.141C236.539 99.2812 233.656 97.8516 230.469 97.8516C224.047 97.8516 219.57 100.688 217.039 106.359C216.148 108.656 215.703 110.742 215.703 112.617C215.703 123.305 219.195 131.227 226.18 136.383C228.477 137.32 230.258 137.789 231.523 137.789C238.93 137.789 243.664 134.438 245.727 127.734C245.961 123.281 246.758 121.055 248.117 121.055C254.305 119.086 258.242 118.102 259.93 118.102H260.281C261.5 118.805 262.109 119.789 262.109 121.055C262.109 134.133 256.086 143.156 244.039 148.125C239.445 150.094 234.477 151.078 229.133 151.078C222.242 151.078 215.797 148.5 209.797 143.344C206.047 139.5 203.656 136.125 202.625 133.219C200.188 128.719 198.969 122.227 198.969 113.742V112.969C198.969 108.844 200.75 103.805 204.312 97.8516C208.344 92.3203 214.18 88.4062 221.82 86.1094C225.523 84.9844 229.32 84.4219 233.211 84.4219V84.2812C232.367 84.2812 231.805 83.6484 231.523 82.3828V82.0312C231.805 80.6719 232.367 79.9922 233.211 79.9922V0.890625C233.211 0.703125 233.445 0.445312 233.914 0.117188ZM231.172 92.1562C231.172 93.9375 232.273 94.9922 234.477 95.3203C236.352 94.9453 237.289 93.8438 237.289 92.0156C236.82 90.2812 236.141 89.4141 235.25 89.4141V90.3281C235.25 90.5156 234.992 90.7734 234.477 91.1016H233.914C233.727 91.1016 233.492 90.8438 233.211 90.3281V89.4141H233C231.781 90.1172 231.172 91.0312 231.172 92.1562ZM299.094 100.312C299.094 102 300.148 102.984 302.258 103.266C304.039 102.891 304.93 101.836 304.93 100.102C304.461 98.4609 303.805 97.6406 302.961 97.6406V98.5547C302.961 98.7422 302.727 98.9766 302.258 99.2578H301.766C301.578 99.2578 301.344 99.0234 301.062 98.5547V97.6406H300.852C299.68 98.2969 299.094 99.1875 299.094 100.312ZM302.891 94.6875C305.328 95.3906 308.773 96.4922 313.227 97.9922C314.398 97.9922 314.984 101.273 314.984 107.836L315.125 109.453L314.984 109.805C315.922 133.242 316.438 149.555 316.531 158.742C316.531 159.727 315.781 160.359 314.281 160.641C313.297 160.547 311.82 160.148 309.852 159.445V159.586L307.953 159.164V159.094C307.953 158.906 306.008 158.203 302.117 156.984C300.852 156.188 300.219 155.133 300.219 153.82V126.82C300.219 124.664 300.148 121.664 300.008 117.82C300.008 117.445 299.609 117.047 298.812 116.625C298.156 116.625 296.938 117.914 295.156 120.492C293.656 122.93 287.516 131.93 276.734 147.492C275.984 147.961 275.047 148.242 273.922 148.336C267.453 146.461 263.586 145.195 262.32 144.539C262.039 144.117 261.805 143.648 261.617 143.133C261.617 142.195 266.07 135.82 274.977 124.008C276.57 121.477 282.242 113.578 291.992 100.312C293.258 98.1094 294.945 96 297.055 93.9844C297.477 93.75 297.945 93.6328 298.461 93.6328H298.672C299 93.6328 299.773 93.7969 300.992 94.125V93.5625C300.383 92.9531 300.078 92.4375 300.078 92.0156V91.6641C300.078 91.1484 300.383 90.5625 300.992 89.9062V1.52344C300.992 1.33594 301.227 1.10156 301.695 0.820312H302.188C302.375 0.820312 302.609 1.05469 302.891 1.52344V84.7734H303.102C303.102 84.1172 303.852 83.1328 305.352 81.8203C305.68 80.4141 306.383 79.7109 307.461 79.7109H307.672C308.844 79.7109 309.547 80.4609 309.781 81.9609C309.406 83.2734 308.75 83.9297 307.812 83.9297H307.32C306.898 83.9297 306.43 83.6953 305.914 83.2266C304.133 85.1484 303.242 87.1875 303.242 89.3438V89.6953C303.945 90.3984 304.297 90.9844 304.297 91.4531V92.0156C304.297 92.7656 303.828 93.3281 302.891 93.7031V94.6875ZM364.555 93.2812C364.555 95.0625 365.656 96.0938 367.859 96.375C369.641 96 370.531 94.9219 370.531 93.1406C370.062 91.4062 369.406 90.5391 368.562 90.5391V91.4531C368.562 91.6406 368.328 91.8984 367.859 92.2266H367.297C367.109 92.2266 366.852 91.9688 366.523 91.4531V90.5391H366.383C365.164 91.2422 364.555 92.1562 364.555 93.2812ZM325.672 93C324.5 93.6562 323.914 94.5469 323.914 95.6719C323.914 97.3594 324.969 98.3438 327.078 98.625C328.859 98.25 329.75 97.1953 329.75 95.4609C329.281 93.8203 328.625 93 327.781 93V93.9141C327.781 94.1016 327.547 94.3359 327.078 94.6172H326.586C326.398 94.6172 326.164 94.3828 325.883 93.9141V93H325.672ZM327.711 89.0625C328.461 88.9688 330.102 88.9219 332.633 88.9219H332.773C334.836 88.9219 335.867 92.0625 335.867 98.3438C337.555 121.594 339.148 133.219 340.648 133.219C342.43 136.266 344.891 137.789 348.031 137.789H350.211C353.961 137.789 357.242 136.031 360.055 132.516C361.273 130.594 361.883 127.805 361.883 124.148V123.445C361.883 119.648 361.086 108.328 359.492 89.4844C359.492 87.2812 361.203 86.1797 364.625 86.1797C365.234 86.0859 365.867 86.0156 366.523 85.9688V85.7578C365.961 85.1016 365.68 84.5391 365.68 84.0703V83.7188C365.68 83.2031 365.961 82.5938 366.523 81.8906V1.17188C366.523 0.984375 366.781 0.75 367.297 0.46875H367.859C368.047 0.46875 368.281 0.703125 368.562 1.17188V76.6172H368.703C368.703 75.9141 369.5 74.9062 371.094 73.5938C371.422 72.1406 372.148 71.4141 373.273 71.4141H373.484C374.656 71.4141 375.383 72.1875 375.664 73.7344C375.242 75.0938 374.562 75.7734 373.625 75.7734H373.062C372.641 75.7734 372.172 75.5156 371.656 75C369.828 77.0156 368.914 79.1484 368.914 81.3984V81.75C369.664 82.4531 370.039 83.0625 370.039 83.5781V84.0703C370.039 84.5391 369.734 85.1016 369.125 85.7578C370.484 85.6172 371.938 85.5234 373.484 85.4766C375.688 85.4766 376.789 87.9609 376.789 92.9297C376.789 93.6328 378.172 110.695 380.938 144.117C380.938 146.414 378.828 147.562 374.609 147.562C371.75 147.844 369.43 147.984 367.648 147.984H367.508C365.961 147.984 365 146.531 364.625 143.625C364.203 143.016 363.711 142.711 363.148 142.711C362.633 142.711 361.227 143.906 358.93 146.297C354.758 149.344 351.5 150.867 349.156 150.867C347.844 151.336 346.461 151.57 345.008 151.57V151.711L342.406 151.781C333.219 151.781 327.055 147.914 323.914 140.18C322.461 138.211 321.242 129.117 320.258 112.898C319.18 101.789 318.641 94.8281 318.641 92.0156C318.641 90.3281 321.031 89.4141 325.812 89.2734V89.2031C325.016 89.2031 324.477 88.6172 324.195 87.4453V87.0938C324.477 85.8281 325.016 85.1953 325.812 85.1953V1.17188C325.812 0.984375 326.047 0.75 326.516 0.46875H327.008C327.195 0.46875 327.43 0.703125 327.711 1.17188V78.8672C328.602 78.2109 329.422 77.1562 330.172 75.7031C330.641 75.3281 331.062 75.1406 331.438 75.1406H331.789C333.055 75.3281 333.688 75.9844 333.688 77.1094V77.9531C333.219 78.8906 332.633 79.3594 331.93 79.3594H331.438C331.016 79.3594 330.477 79.125 329.82 78.6562C328.414 80.4844 327.711 81.9609 327.711 83.0859V85.5469C328.18 86.0156 328.414 86.4844 328.414 86.9531V87.4453C328.414 87.8672 328.18 88.3359 327.711 88.8516V89.0625Z" fill="#B4468E"/>
</svg>
